<?xml version="1.0" encoding="UTF-8"?>
<svg id="Layer_2" data-name="Layer 2" xmlns="http://www.w3.org/2000/svg" viewBox="0 0 217.16 213.02">
  <defs>
    <style>
      .cls-1 {
        fill: #d18bba;
      }
    </style>
  </defs>
  <g id="Layer_1-2" data-name="Layer 1">
    <path class="cls-1" d="M108.58,0C48.71,0,0,47.78,0,106.51c0,27.4,10.6,52.41,27.99,71.3l-.05.08c.08.04.16.08.24.13,19.88,21.49,48.56,35,80.4,35,59.87,0,108.58-47.78,108.58-106.51S168.45,0,108.58,0ZM108.58,10.75c53.83,0,97.62,42.96,97.62,95.76,0,22.24-7.77,42.74-20.79,59.01-2.53,1.27-4.75,2.52-5.64,3.02-16.47,9.33-35.69,13.12-54.41,11.4,2.13-.99,4.21-2.04,6.26-3.17,17.39-8.87,32.77-20.41,42.97-40.37,11.64-22.8,10.54-59.48-17.15-67.09-12.56-3.28-25.74,1.47-35.33,10.55-5.69,5.16-10.76,12.82-14.09,19.44-.16.3-.43.85-.73.85-.3.02-.56-.51-.72-.79-6.02-11.68-16.06-23.17-29.6-27.66-15.32-5.65-30.91.71-37.92,15-16.72,36.27,10.09,75.91,45.17,91.76.48.26.96.52,1.44.77-17.78,1.34-35.69-1.85-50.45-9.63-15.09-16.86-24.25-38.94-24.25-63.09C10.96,53.71,54.75,10.75,108.58,10.75ZM87.24,167.83l-.08.14c-25.92-12.88-45.96-37.86-41.8-65.99,2.36-16.14,14.47-26.76,31-18.94,8.97,4.07,15.9,11.65,22.21,24.3,1.61,4.24,5.71,7.32,10.31,6.38,6.1-.97,7.23-7.46,10.06-12.08,5.24-9.45,12.72-18.48,23.84-21.7,14.93-4.03,25.79,5.77,27.64,20.22,1.5,10.62-.86,22.17-5.56,31.66-8.52,17.15-23.92,28.05-36.36,34.47l-.04-.07c-.57.34-1.16.66-1.74.98-.1.05-.2.1-.29.16-6.62,3.65-13.74,6.5-21.12,8.51-6.28-2.01-12.35-4.68-18.07-8.04ZM108.58,202.27c-18.41,0-35.64-5.03-50.35-13.75,6.38,1.13,12.94,1.69,19.54,1.69,9.12,0,18.31-1.09,27.22-3.23,9.47,2.71,19.31,4.08,29.16,4.08s18.56-1.43,26.3-3.48c-15.04,9.29-32.83,14.68-51.88,14.68Z"/>
  </g>
</svg>