<?xml version="1.0" encoding="UTF-8"?>
<svg id="Layer_2" data-name="Layer 2" xmlns="http://www.w3.org/2000/svg" viewBox="0 0 381.09 144.26">
  <defs>
    <style>
      .cls-1 {
        fill: #d18bba;
      }
    </style>
  </defs>
  <g id="Layer_1-2" data-name="Layer 1">
    <g>
      <path class="cls-1" d="M0,56.2V5.88C0,3.56,1.88,1.68,4.2,1.68h18.79c4.14,0,7.59.64,10.36,1.93,2.77,1.29,4.85,3.06,6.25,5.33,1.4,2.27,2.1,4.88,2.1,7.84s-.64,5.45-1.93,7.47c-1.29,2.01-2.98,3.55-5.08,4.61-2.1,1.06-4.38,1.71-6.84,1.93h0c.86-.63,1.92-.93,2.98-.79,1.95.27,3.74.92,5.37,1.96,2.1,1.34,3.76,3.09,4.99,5.24,1.23,2.15,1.85,4.54,1.85,7.17,0,3.08-.74,5.83-2.22,8.26s-3.65,4.34-6.5,5.71c-2.85,1.37-6.35,2.06-10.49,2.06H4.2c-2.32,0-4.2-1.88-4.2-4.2ZM10.07,22.31c0,2.32,1.88,4.2,4.2,4.2h7.29c3.24,0,5.7-.74,7.38-2.22,1.68-1.48,2.52-3.54,2.52-6.17s-.84-4.6-2.52-6.08c-1.68-1.48-4.17-2.22-7.47-2.22h-7.21c-2.32,0-4.2,1.88-4.2,4.2v8.29ZM10.07,47.98c0,2.32,1.88,4.2,4.2,4.2h8.05c3.3,0,5.87-.78,7.72-2.35,1.85-1.56,2.77-3.75,2.77-6.54s-.95-5.02-2.85-6.67c-1.9-1.65-4.5-2.47-7.8-2.47h-7.88c-2.32,0-4.2,1.88-4.2,4.2v9.64Z"/>
      <path class="cls-1" d="M72.06,61.41c-4.03,0-7.65-.94-10.86-2.81-3.22-1.87-5.73-4.47-7.55-7.8-1.82-3.33-2.73-7.14-2.73-11.45s.92-8.29,2.77-11.62c1.85-3.33,4.38-5.93,7.59-7.8,3.22-1.87,6.84-2.81,10.86-2.81s7.65.94,10.86,2.81c3.22,1.88,5.73,4.46,7.55,7.76,1.82,3.3,2.73,7.16,2.73,11.58s-.92,8.28-2.77,11.58c-1.85,3.3-4.38,5.89-7.59,7.76-3.22,1.87-6.84,2.81-10.86,2.81ZM72.06,52.77c2.01,0,3.84-.5,5.5-1.51,1.65-1.01,2.98-2.52,3.98-4.53s1.51-4.5,1.51-7.47-.49-5.44-1.47-7.42c-.98-1.98-2.29-3.48-3.94-4.49-1.65-1.01-3.48-1.51-5.5-1.51s-3.78.5-5.45,1.51-3.02,2.5-4.03,4.49c-1.01,1.99-1.51,4.46-1.51,7.42s.5,5.45,1.51,7.47,2.33,3.52,3.98,4.53c1.65,1.01,3.45,1.51,5.41,1.51Z"/>
      <path class="cls-1" d="M118.79,61.41c-3.41,0-6.33-.69-8.77-2.06-2.43-1.37-4.29-3.44-5.58-6.21-1.29-2.77-1.93-6.19-1.93-10.28v-22.67c0-1.15.93-2.08,2.08-2.08h5.91c1.15,0,2.08.93,2.08,2.08v21.66c0,3.64.77,6.39,2.31,8.26s3.87,2.81,7.01,2.81c2.01,0,3.82-.47,5.41-1.43,1.59-.95,2.85-2.33,3.77-4.15.92-1.82,1.38-4.04,1.38-6.67v-20.49c0-1.15.93-2.08,2.08-2.08h5.91c1.15,0,2.08.93,2.08,2.08v38.12c0,1.15-.93,2.08-2.08,2.08h-4.94c-1.06,0-1.95-.8-2.07-1.86h0c-.19-1.74-2.25-2.46-3.52-1.27-.78.73-1.65,1.38-2.61,1.96-2.43,1.45-5.27,2.18-8.52,2.18Z"/>
      <path class="cls-1" d="M153.78,58.32V20.2c0-1.15.93-2.08,2.08-2.08h4.94c1.06,0,1.95.8,2.07,1.86h0c.19,1.73,2.26,2.45,3.53,1.25.77-.72,1.62-1.37,2.57-1.94,2.4-1.45,5.26-2.18,8.56-2.18s6.32.71,8.73,2.14c2.4,1.43,4.26,3.51,5.58,6.25,1.31,2.74,1.97,6.15,1.97,10.23v22.59c0,1.15-.93,2.08-2.08,2.08h-5.91c-1.15,0-2.08-.93-2.08-2.08v-21.66c0-3.52-.78-6.24-2.35-8.14-1.57-1.9-3.89-2.85-6.96-2.85-2.01,0-3.82.48-5.41,1.43-1.59.95-2.85,2.33-3.77,4.15s-1.38,4.01-1.38,6.58v20.49c0,1.15-.93,2.08-2.08,2.08h-5.91c-1.15,0-2.08-.93-2.08-2.08Z"/>
      <path class="cls-1" d="M223.24,61.41c-3.92,0-7.41-.95-10.49-2.85-3.08-1.9-5.47-4.53-7.17-7.89-1.71-3.36-2.56-7.16-2.56-11.41s.87-8.04,2.6-11.37c1.73-3.33,4.15-5.96,7.26-7.89s6.61-2.89,10.53-2.89c3.19,0,5.97.6,8.35,1.8.81.41,1.57.88,2.27,1.41,1.4,1.05,3.4.02,3.4-1.73V2.14c0-1.18.96-2.14,2.14-2.14h5.79c1.18,0,2.14.96,2.14,2.14v56.12c0,1.18-.96,2.14-2.14,2.14h-5.1c-1.05,0-1.94-.76-2.11-1.79h0c-.27-1.67-2.27-2.37-3.53-1.24-.15.13-.3.26-.45.39-1.29,1.09-2.82,1.97-4.61,2.64-1.79.67-3.89,1.01-6.29,1.01ZM225.34,52.69c2.4,0,4.53-.57,6.38-1.72,1.85-1.15,3.27-2.73,4.28-4.74s1.51-4.33,1.51-6.96-.5-4.95-1.51-6.96c-1.01-2.01-2.43-3.58-4.28-4.7-1.85-1.12-3.97-1.68-6.38-1.68s-4.36.56-6.21,1.68c-1.85,1.12-3.29,2.68-4.32,4.7-1.04,2.01-1.55,4.34-1.55,6.96s.52,4.95,1.55,6.96c1.03,2.01,2.47,3.59,4.32,4.74,1.85,1.15,3.91,1.72,6.21,1.72Z"/>
      <path class="cls-1" d="M272.74,61.41c-3.47,0-6.35-.59-8.64-1.76-2.29-1.17-4-2.74-5.12-4.7-1.12-1.96-1.68-4.08-1.68-6.38,0-2.68.68-5,2.06-6.96,1.37-1.96,3.4-3.48,6.08-4.57,2.69-1.09,5.98-1.64,9.9-1.64h9.04c.9,0,1.62-.78,1.55-1.68-.12-1.51-.41-2.81-.86-3.9-.62-1.48-1.57-2.59-2.85-3.31-1.29-.73-2.94-1.09-4.95-1.09-2.29,0-4.25.52-5.87,1.55-1.33.85-2.25,2.07-2.75,3.66-.2.64-.8,1.08-1.47,1.08h-6.87c-.98,0-1.74-.91-1.53-1.87.49-2.23,1.39-4.2,2.72-5.89,1.68-2.15,3.9-3.83,6.67-5.03,2.77-1.2,5.8-1.8,9.1-1.8,3.97,0,7.35.69,10.15,2.06,2.8,1.37,4.94,3.33,6.42,5.87,1.48,2.55,2.22,5.61,2.22,9.19v24.62c0,.86-.69,1.55-1.55,1.55h-5.67c-.77,0-1.42-.56-1.53-1.32l-.24-1.63c-.19-1.3-1.8-1.75-2.68-.77,0,0-.02.02-.03.03-.87.95-1.86,1.78-2.98,2.48-1.12.7-2.39,1.24-3.82,1.64-1.43.39-3.04.59-4.82.59ZM275,53.44c1.62,0,3.06-.29,4.32-.88,1.26-.59,2.35-1.43,3.27-2.52s1.64-2.31,2.14-3.65c.5-1.34.84-2.77,1.01-4.28v-.17h-9.31c-1.96,0-3.58.25-4.87.76-1.29.5-2.21,1.19-2.77,2.06-.56.87-.84,1.89-.84,3.06s.28,2.18.84,3.02c.56.84,1.37,1.48,2.43,1.93,1.06.45,2.32.67,3.77.67Z"/>
      <path class="cls-1" d="M306.8,58.02V20.5c0-1.32,1.07-2.38,2.38-2.38h4.47c1.21,0,2.23.91,2.37,2.11h0c.23,1.94,2.56,2.8,3.98,1.47.15-.15.31-.29.47-.43,1.51-1.31,3.28-2.33,5.33-3.06,1.27-.45,2.62-.76,4.05-.93s2.7.93,2.7,2.37v5.75c0,1.32-1.07,2.38-2.38,2.38h-1.14c-1.68,0-3.27.21-4.78.63-1.51.42-2.81,1.09-3.9,2.01s-1.94,2.18-2.56,3.78c-.62,1.59-.92,3.59-.92,6v17.84c0,1.32-1.07,2.38-2.38,2.38h-5.3c-1.32,0-2.38-1.07-2.38-2.38Z"/>
      <path class="cls-1" d="M348.79,78.86c-1.68,0-2.8-1.73-2.11-3.26l8.87-19.9h0l-17.64-34.21c-.79-1.54.32-3.38,2.06-3.38h5.68c.92,0,1.75.54,2.12,1.38l9.8,22.34c.82,1.87,3.48,1.84,4.26-.04l9.24-22.26c.36-.86,1.2-1.43,2.14-1.43h5.58c1.67,0,2.79,1.71,2.12,3.24l-24.41,56.11c-.37.84-1.2,1.39-2.12,1.39h-5.57Z"/>
      <path class="cls-1" d="M0,139.31v-50.84c0-2.18,1.77-3.94,3.94-3.94h2.18c2.18,0,3.94,1.77,3.94,3.94v42.93c0,2.19,1.78,3.97,3.97,3.97h18.26c2.18,0,3.94,1.77,3.94,3.94h0c0,2.18-1.77,3.94-3.94,3.94H3.94c-2.18,0-3.94-1.77-3.94-3.94Z"/>
      <path class="cls-1" d="M59.82,144.26c-3.47,0-6.35-.59-8.64-1.76-2.29-1.17-4-2.74-5.12-4.7-1.12-1.96-1.68-4.08-1.68-6.38,0-2.68.68-5,2.06-6.96,1.37-1.96,3.4-3.48,6.08-4.57,2.69-1.09,5.98-1.64,9.9-1.64h9.04c.9,0,1.62-.78,1.55-1.68-.12-1.51-.41-2.81-.86-3.9-.62-1.48-1.57-2.59-2.85-3.31-1.29-.73-2.94-1.09-4.95-1.09-2.29,0-4.25.52-5.87,1.55-1.33.85-2.25,2.07-2.75,3.66-.2.64-.8,1.08-1.47,1.08h-6.87c-.98,0-1.74-.91-1.53-1.87.49-2.23,1.39-4.2,2.72-5.89,1.68-2.15,3.9-3.83,6.67-5.03,2.77-1.2,5.8-1.8,9.1-1.8,3.97,0,7.35.69,10.15,2.06,2.8,1.37,4.94,3.33,6.42,5.87,1.48,2.55,2.22,5.61,2.22,9.19v24.62c0,.86-.69,1.55-1.55,1.55h-5.67c-.77,0-1.42-.56-1.53-1.32l-.24-1.63c-.19-1.3-1.8-1.75-2.68-.77,0,0-.02.02-.03.03-.87.95-1.86,1.78-2.98,2.48-1.12.7-2.39,1.24-3.82,1.64-1.43.39-3.04.59-4.82.59ZM62.08,136.29c1.62,0,3.06-.29,4.32-.88,1.26-.59,2.35-1.43,3.27-2.52s1.64-2.31,2.14-3.65c.5-1.34.84-2.77,1.01-4.28v-.17h-9.31c-1.96,0-3.58.25-4.87.76-1.29.5-2.21,1.19-2.77,2.06-.56.87-.84,1.89-.84,3.06s.28,2.18.84,3.02c.56.84,1.37,1.48,2.43,1.93,1.06.45,2.32.67,3.77.67Z"/>
      <path class="cls-1" d="M118.04,144.26c-2.24,0-4.25-.29-6.04-.88-1.79-.59-3.35-1.4-4.7-2.43-.68-.52-1.3-1.09-1.87-1.69-.64-.68-1.77-.35-1.94.57h0c-.37,1.99-2.1,3.43-4.13,3.43h-4.35c-.63,0-1.14-.51-1.14-1.14v-58.13c0-.63.51-1.14,1.14-1.14h7.79c.63,0,1.14.51,1.14,1.14v19.97c0,1.03,1.25,1.51,1.97.77,1-1.02,2.16-1.92,3.48-2.71,2.29-1.37,5.15-2.06,8.56-2.06,3.97,0,7.48.96,10.53,2.89,3.05,1.93,5.45,4.56,7.21,7.89,1.76,3.33,2.64,7.15,2.64,11.45s-.87,7.97-2.6,11.33c-1.73,3.36-4.13,5.99-7.17,7.89-3.05,1.9-6.56,2.85-10.53,2.85ZM115.94,135.53c2.35,0,4.45-.57,6.29-1.72,1.85-1.15,3.28-2.71,4.32-4.7,1.03-1.98,1.55-4.32,1.55-7s-.52-4.95-1.55-6.96c-1.04-2.01-2.47-3.58-4.32-4.7-1.85-1.12-3.94-1.68-6.29-1.68s-4.52.56-6.33,1.68c-1.82,1.12-3.24,2.68-4.28,4.7-1.04,2.01-1.55,4.34-1.55,6.96s.52,5.02,1.55,7c1.03,1.99,2.46,3.55,4.28,4.7,1.82,1.15,3.93,1.72,6.33,1.72Z"/>
      <path class="cls-1" d="M152.43,143.67c-1.9,0-3.44-.59-4.61-1.76s-1.76-2.57-1.76-4.19c0-1.73.59-3.19,1.76-4.36s2.71-1.76,4.61-1.76,3.36.59,4.53,1.76,1.76,2.63,1.76,4.36c0,1.62-.59,3.02-1.76,4.19s-2.68,1.76-4.53,1.76Z"/>
    </g>
  </g>
</svg>